<svg  xmlns="http://www.w3.org/2000/svg"><path d="M165.816 6.887c-11.696 4.224-16.42 8.274-25.216 21.613-4.659 7.066-12.6 22.86-12.6 25.06 0 .445-.828 2.638-1.839 4.874-1.012 2.236-2.794 7.216-3.961 11.066-3.376 11.136-9.923 30.114-11.232 32.561-.66 1.231-1.541 4.999-1.96 8.372-.418 3.373-1.663 8.143-2.766 10.6-1.103 2.457-2.33 7.606-2.727 11.443-.398 3.837-1.564 9.112-2.593 11.722-1.029 2.61-2.168 8.471-2.532 13.024-.396 4.964-2.041 12.681-4.107 19.278-1.896 6.05-3.993 14.15-4.662 18-1.428 8.217-.846 8.07-14.085 3.556-10.632-3.625-14.405-3.773-25.036-.984-8.281 2.173-18.672 8.348-20.906 12.424-.602 1.097-1.994 3.343-3.094 4.991-3.474 5.204-12.5 23.535-12.5 25.387 0 .977-1.206 5.117-2.679 9.201l-2.68 7.425-.019 32.5c-.018 30.428.114 32.882 2.074 38.5 1.15 3.3 2.608 8.469 3.238 11.487.631 3.018 1.82 6.514 2.642 7.77C18.952 350.383 26.017 355 29.19 355c4.033 0 9.922-3.224 13.655-7.476 3.892-4.433 4.171-9.829 1.009-19.524-1.964-6.024-2.124-8.736-2.183-37-.057-26.979.141-31.019 1.715-35 .978-2.475 2.659-7.221 3.735-10.548 3.521-10.883 14.109-21.572 17.095-17.26 1.785 2.577.02 17.916-2.853 24.808-2.62 6.284-2.713 7.148-2.787 26-.087 22.399.065 22.895 9.666 31.528 6.581 5.916 8.74 6.965 17.258 8.383 9.241 1.538 17.233 3.847 18.084 5.225.377.611.791 7.596.92 15.523l.233 14.412-3.596 2.964c-1.978 1.631-4.146 2.965-4.817 2.965-.672 0-4.928 1.171-9.459 2.602-12.59 3.978-16.276 3.683-25.598-2.046-9.328-5.733-13.411-6.548-18.844-3.762-6.02 3.087-8.399 6.21-9.075 11.913-.814 6.873.951 11.506 6.116 16.052 11.17 9.832 24.487 12.608 47.455 9.89 7.838-.927 15.451-2.283 16.916-3.013 1.466-.73 6.315-2.578 10.777-4.107l8.111-2.779 7.018 4.099c11.512 6.723 27.161 8.672 44.366 5.524 7.649-1.4 9.978-2.344 16.643-6.75 5.502-3.637 9.2-7.065 12.75-11.818 2.75-3.683 5.278-6.72 5.618-6.75.34-.03 2.365 2.969 4.5 6.664 5.754 9.96 11.729 15.734 18.382 17.763 14.005 4.273 28.659 2.473 39.311-4.828 5.812-3.984 9.884-9.798 7.775-11.101-.484-.299-3.064 1.04-5.733 2.976-2.669 1.936-7.732 4.932-11.251 6.659-5.66 2.777-7.392 3.14-15 3.147-9.715.008-13.717-1.302-19.506-6.385-3.77-3.31-9.189-10.979-13.036-18.45-2.826-5.488-4.832-5.536-9.859-.236-2.31 2.436-6.848 7.222-10.083 10.636-10.84 11.44-24.033 15.875-42.118 14.158-8.316-.79-13.424-2.767-22.946-8.882-2.72-1.747-5.92-3.176-7.111-3.176-1.192 0-5.143 1.349-8.78 2.999-16.957 7.688-32.913 10.649-48.169 8.939-8.575-.962-17.229-5.205-22.744-11.152-3.095-3.337-3.75-4.776-3.75-8.24 0-4.729 2.552-7.914 7.282-9.088 2.239-.556 4.385.25 11 4.133 7.352 4.314 8.974 4.865 15.39 5.221 5.809.323 8.754-.114 15.5-2.301 14.866-4.818 16.726-5.614 19.767-8.454l2.998-2.801-.532-16.878c-.292-9.283-.733-17.878-.98-19.099-.654-3.24-3.647-4.455-15.763-6.401-8.594-1.38-11.978-2.428-16.339-5.06-7.76-4.682-12.231-11.1-13.379-19.207-1.314-9.284.373-29.279 2.966-35.141 1.204-2.72 2.529-9.071 3.217-15.411 1.079-9.953 1.023-11.083-.729-14.671-1.703-3.489-2.329-3.919-6.092-4.193-2.428-.176-5.471.356-7.228 1.265C48.116 226.577 39 245.647 36.46 263.5c-2.564 18.014-1.471 52.518 2.109 66.644.787 3.105 1.431 6.982 1.431 8.615 0 6.577-7.492 10.937-14.094 8.202-3.899-1.615-5.641-4.309-6.443-9.961-.352-2.475-1.612-7.425-2.801-11-2.03-6.102-2.162-8.397-2.162-37.5 0-29.767.09-31.23 2.25-36.788 1.238-3.183 2.25-6.881 2.25-8.218 0-3.534 11.513-25.663 15.97-30.696 2.093-2.364 6.426-5.873 9.629-7.798 5.718-3.437 6.022-3.5 16.862-3.5 9.7 0 11.464.27 14.539 2.227 1.925 1.225 5.426 3.233 7.78 4.464 4.054 2.118 4.423 2.15 7 .594 2.449-1.48 2.835-2.52 3.879-10.464.637-4.852 1.899-10.846 2.804-13.321.906-2.475 2.971-11.475 4.59-20 3.691-19.432 6.437-31.398 9.41-41 1.278-4.125 2.608-9.454 2.956-11.842.349-2.388 1.461-5.988 2.472-8 1.011-2.012 2.16-5.458 2.552-7.658 1.707-9.569 12.136-37.898 19.327-52.5 9.127-18.531 15.445-25.865 26.905-31.23 6.015-2.816 7.845-3.196 15.419-3.197 7.699-.001 9.289.341 15.282 3.292 3.679 1.811 8.646 5.17 11.038 7.464C219.548 31.97 231.562 62.825 238.047 99c2.552 14.238 6.615 29.733 8.61 32.836 1.486 2.312 1.637 2.329 14.173 1.64 15.637-.86 19.588.031 24.562 5.536 2.892 3.201 3.608 4.797 3.608 8.041 0 9.889-5.298 13.666-21.663 15.444-15.4 1.673-15.908 2.155-15.608 14.804.121 5.089.924 12.842 1.785 17.226.861 4.385 1.812 16.073 2.113 25.973.526 17.345.452 18.308-2.053 26.47-3.397 11.065-9.534 21.649-14.924 25.735-2.325 1.762-7.573 4.628-11.663 6.368-9.106 3.875-14.735 3.663-25.84-.974-16.177-6.755-29.393-19.752-39.487-38.835-7.068-13.362-10.929-33.251-8.805-45.353 2.111-12.024 10.004-24.734 20.224-32.565 6.452-4.944 25.381-14.755 32.421-16.803 8.515-2.478 9-3.162 9-12.712 0-6.277-.526-9.564-2.134-13.331-1.174-2.75-2.434-7.7-2.801-11-.65-5.864-1.414-9.001-7.421-30.5-6.14-21.977-11.228-32.441-17.299-35.58-7.081-3.662-13.081 1.295-20.805 17.189-4.996 10.28-6.922 15.131-12.064 30.391-1.205 3.575-3.003 8.525-3.996 11-1.737 4.328-5.066 16.613-9.08 33.5-5.71 24.025-6.952 29.551-7.912 35.189-.58 3.405-1.885 8.604-2.9 11.555-1.015 2.951-2.157 8.715-2.538 12.81-.38 4.096-1.758 11.496-3.061 16.446-1.303 4.95-2.866 12.825-3.473 17.5-1.345 10.353-6.609 39.735-7.614 42.5-1.47 4.042-4.674 7.598-8.692 9.648-3.376 1.722-5.235 1.999-10.267 1.529-6.884-.643-8.443.178-8.443 4.446 0 3.762 4.4 8.646 8.823 9.793 2.022.525 9.077 1.458 15.677 2.074 20.567 1.918 19.523 1.634 27.05 7.353 3.922 2.979 8.693 7.801 10.95 11.066l4 5.785v12.153c0 11.444-.158 12.417-2.718 16.686-1.494 2.493-3.394 6.451-4.221 8.795l-1.504 4.263 3.394 3.705c3.337 3.641 3.54 3.71 11.924 4.055 8.052.331 8.838.174 14.048-2.807 6.655-3.808 14.229-12.061 18.722-20.402 5.087-9.445 13.846-36.984 13.861-43.58.009-4.452 2.073-10.232 4.531-12.69 2.973-2.973 8.662-3.158 13.143-.425 3.761 2.293 3.991 3.506 4.745 25.053.448 12.808.962 16.167 4.398 28.783 3 11.017 4.75 15.532 7.655 19.75 3.675 5.336 3.88 5.467 8.549 5.467 3.921 0 6.099-.811 12.082-4.5 5.594-3.449 8.274-4.5 11.473-4.5 2.53 0 4.674-.604 5.446-1.533 1.812-2.183 2.423-10.739 1.047-14.651-1.876-5.332-4.034-30.062-4.055-46.477l-.02-15.161 3.201-2.694c2.673-2.249 3.864-2.605 7.215-2.155 2.208.296 4.572 1.302 5.255 2.236 2.146 2.935 4.443 18.873 6.765 46.935 1.559 18.848 5.218 33.067 8.856 34.412 3.379 1.25 5.025.37 14.905-7.971A6883.058 6883.058 0 0 1 332 343.156c1.925-1.612 5.422-3.932 7.772-5.156 3.74-1.948 4.646-2.069 7.284-.977 9.486 3.93 8.971 13.038-1.196 21.134L332 369.193c-9.613 7.652-20.177 18.041-23.427 23.035-1.656 2.546-1.7 4.317-.656 26.5 1.375 29.198.469 43.322-3.48 54.272-5.704 15.815-16.047 29.194-26.224 33.921-7.119 3.306-6.864 5.079.731 5.079h5.945l6.673-6.673c10.163-10.163 16.904-21.854 20.659-35.827.684-2.543 1.026-16.749.939-39l-.136-35 10.238-9.818c12.235-11.732 16.175-15.15 24.701-21.425 7.157-5.268 10.664-9.754 11.624-14.869 1.063-5.667-.374-10.175-4.587-14.388-4.475-4.475-9.332-5.829-14.846-4.139-3.71 1.137-5.673 2.597-22.035 16.389-5.057 4.263-9.607 7.75-10.11 7.75-1.754 0-5.113-13.58-6.061-24.5-.525-6.05-1.431-15.05-2.014-20a8167.5 8167.5 0 0 1-2.015-17.32c-1.214-10.562-4.493-17.487-9.028-19.068-4.1-1.429-10.445-1.301-14.882.3-5.953 2.149-6.498 6.086-5.269 38.088.796 20.755 1.425 28.084 2.72 31.687.927 2.578 1.54 5.949 1.363 7.493-.289 2.51-.812 2.875-4.965 3.464-2.756.392-7.427 2.34-11.5 4.798-4.169 2.516-7.814 4.025-9.295 3.849-3.699-.441-8.009-8.575-9.692-18.291-.762-4.4-2.131-9.8-3.042-12-1.24-2.997-1.755-8.139-2.053-20.5-.282-11.7-.867-17.863-2.011-21.187-1.956-5.677-1.452-6.508 6.23-10.267 5.707-2.792 12.954-10.027 17.001-16.972 1.306-2.241 3.806-8.562 5.557-14.047l3.184-9.972-.499-21.028c-.35-14.731-.955-22.524-2.023-26.027-.838-2.75-1.812-8.6-2.165-13-.922-11.511-.59-11.822 13.47-12.628 10.208-.585 11.555-.897 15.336-3.55 5.019-3.522 6.692-6.746 7.359-14.176.678-7.547-.953-13.015-5.074-17.009-4.368-4.234-8.321-5.084-23.769-5.113-8.859-.017-12.935-.397-13.66-1.274-.568-.687-1.78-4.175-2.692-7.75-.912-3.575-2.338-8.525-3.169-11-.831-2.475-1.912-8.343-2.401-13.039-.49-4.697-1.614-10.547-2.499-13-.885-2.454-2.037-7.386-2.56-10.961-.524-3.575-1.782-8.093-2.796-10.04-1.014-1.947-2.173-5.097-2.575-7-1.608-7.605-10.867-25.506-18.461-35.693-3.343-4.485-9.249-8.259-18.003-11.506-10.184-3.777-19.541-3.738-30.24.126m19.515 43.363c1.338 1.788 3.211 4.787 4.162 6.665C192.485 62.824 199 82.689 199 85.902c0 1.692.923 5.444 2.052 8.337 1.129 2.894 2.467 9.423 2.974 14.511.508 5.087 1.668 10.692 2.58 12.455.911 1.762 1.88 5.979 2.152 9.369l.495 6.164-4.877 1.698c-4.924 1.715-15.544 6.924-27.252 13.368-9.716 5.347-20.152 16.225-24.752 25.8-3.77 7.845-3.796 7.989-4.161 22.396-.406 16.034.354 21.664 4.525 33.5 3.552 10.08 5.36 13.522 11.031 21 10.03 13.227 23.85 25.128 32.667 28.132 5.74 1.956 7.358 4.51 5.069 8.003-.953 1.455-2.034 6.328-2.585 11.649-.52 5.031-2.065 12.389-3.432 16.35-1.367 3.961-2.486 7.743-2.486 8.404 0 .661-2.082 5.535-4.627 10.832-7.588 15.793-16.374 25.092-25.675 27.173-4.384.981-5.855.918-8.971-.384-4.714-1.969-4.801-4.059-.477-11.537 3.245-5.613 3.25-5.644 3.25-19.643v-14.021l-3.376-5.263c-4.405-6.868-16.446-17.805-21.58-19.603-2.24-.784-11.305-1.822-20.317-2.326-13.786-.77-16.679-1.213-18.937-2.899-4.624-3.452-3.93-4.146 3.61-3.606 6.265.448 7.45.224 11.563-2.186 5.698-3.34 9.19-8.567 10.071-15.075.372-2.75 1.507-8.375 2.521-12.5 1.015-4.125 2.31-12.225 2.879-18 .57-5.775 2.424-15.438 4.121-21.473 1.697-6.036 3.512-14.811 4.033-19.5.521-4.69 2.064-11.793 3.429-15.786 1.366-3.992 2.483-9.2 2.483-11.574 0-2.373 1.068-7.882 2.373-12.243 1.305-4.36 2.706-10.852 3.114-14.426.408-3.574 1.572-8.704 2.588-11.399 1.016-2.696 2.145-6.971 2.507-9.5.653-4.552 7.806-25.616 11.507-33.882 1.055-2.356 2.383-6.406 2.951-9 .994-4.536 2.588-8.299 9.346-22.056 5.102-10.387 9.654-12.643 13.945-6.911M209.5 174.513c-9.124 2.865-18.294 9.076-23.13 15.666-3.819 5.204-3.87 5.393-3.866 14.297.004 8.337.286 9.615 3.704 16.78 4.349 9.118 7.183 13.173 14.727 21.07 8.194 8.577 13.719 10.706 18.712 7.209 4.617-3.234 5.353-7.014 5.353-27.476 0-28.805-2.507-46.748-6.834-48.911-1.048-.524-4.264-.017-8.666 1.365m7.984 6.237c1.021 2.561 2.763 46.678 2.131 53.994-1.085 12.575-4.16 13.361-13.709 3.506-8.621-8.898-11.384-12.814-14.943-21.176-2.174-5.11-2.963-8.552-2.963-12.925 0-5.385.349-6.378 3.624-10.297 3.907-4.677 11.078-9.905 17.725-12.923 5.201-2.362 7.246-2.407 8.135-.179m60.016 32.662c-1.65.733-4.125 2.551-5.5 4.04-2.206 2.388-2.541 3.762-2.851 11.68-.64 16.327.964 18.912 11.83 19.066 7.915.112 10.596-1.804 13.638-9.745 2.91-7.598 2.943-11.921.133-17.483-3.886-7.692-10.464-10.575-17.25-7.558m11.347 7.906c.983.794 1.25 3.217.988 8.981-.326 7.186-.609 8.11-3.153 10.298-3.882 3.339-8.879 3.239-11.609-.232-4.432-5.633-1.662-19.535 4.115-20.66 3.015-.587 7.955.238 9.659 1.613m-10.842 165.67c-.738 1.781-5.371 7.574-10.298 12.875-4.926 5.3-11.319 13.237-14.207 17.637-5.673 8.643-18.5 34.162-18.5 36.805 0 .89-1.119 5.123-2.487 9.407-3.636 11.384-3.409 19.64.798 29.09 1.788 4.016 5.418 9.978 8.066 13.25 4.49 5.546 5.096 5.947 8.969 5.933 6.39-.024 7.798-1.457 3.603-3.667-4.007-2.112-11.021-9.063-12.58-12.468-4.901-10.703-5.369-12.262-5.369-17.909 0-3.303.652-7.566 1.45-9.475.797-1.908 1.905-5.936 2.463-8.951 2.276-12.316 14.214-34.227 28.067-51.515 6.135-7.656 14.02-18.909 14.02-20.008 0-.335-.597-1.427-1.327-2.425-1.232-1.685-1.424-1.583-2.668 1.421m.244 41.888c-8.644 8.936-20.253 35.839-20.245 46.919.005 7.991 2.629 12.205 7.6 12.205 3.144 0 4.475-.859 9.884-6.376 6.507-6.636 7.473-8.574 11.391-22.853 2.308-8.411 3.006-26.106 1.077-27.298-2.017-1.247-3.956 1.728-3.956 6.069 0 2.363-1.14 10.07-2.534 17.127-2.137 10.823-3.1 13.66-6.156 18.132-3.533 5.168-7.681 9.199-9.466 9.199-2.137 0-3.224-5.078-2.1-9.806 3.556-14.96 10.354-28.785 20.991-42.694.421-.55.897-1.788 1.059-2.75.524-3.121-3.591-1.962-7.545 2.126" fill="currentColor" fill-rule="evenodd"/></svg>